<svg width="59" height="59" viewBox="0 0 59 59" fill="none" xmlns="http://www.w3.org/2000/svg">
<path d="M6.18194 32.8358L16.8564 47.2606C17.9746 48.7716 19.738 49.6918 21.6751 49.7745L39.2118 50.5221C40.6642 50.5764 42.0973 50.1732 43.3082 49.3694C44.5192 48.5656 45.4467 47.402 45.9596 46.0432L52.3016 28.954C52.9813 27.1227 52.8058 25.1244 51.8227 23.5028L42.8195 8.65349C42.1942 7.6247 41.2795 6.80267 40.1894 6.28986C39.0922 5.7741 37.8728 5.57349 36.6676 5.71048L19.5675 7.58918C18.4782 7.71172 17.433 8.08957 16.5172 8.69196C15.6014 9.29436 14.8409 10.1042 14.2976 11.0556L5.84786 25.9424C5.23652 27.0101 4.93921 28.2283 4.99013 29.4569C5.04139 30.6769 5.45641 31.8535 6.18194 32.8358Z" fill="#D530BE"/>
<path d="M7.8844 28.6378C26.6703 25.1402 31.1765 30.7715 31.1765 30.7715C28.1871 23.3266 36.3623 12.2103 38.1418 8.55455C39.9215 4.8992 35.475 5.94744 35.475 5.94744C35.475 5.94744 35.4694 5.96405 35.4592 5.995C35.2749 5.94625 35.0831 5.93241 34.8936 5.95421L27.1008 6.82227L27.1006 6.8219L27.0996 6.82202C27.0964 6.82259 27.0849 6.82398 27.0657 6.82626C27.0564 6.82716 27.0453 6.82829 27.0325 6.83002C27.0133 6.83232 26.99 6.83471 26.9635 6.83767L19.6849 7.64805C18.5835 7.77383 17.5271 8.15678 16.601 8.76592C15.675 9.37507 14.9053 10.1933 14.3543 11.1544L10.6666 17.6294L10.6637 17.6344L6.78123 24.4508C6.72154 24.5554 6.67427 24.6666 6.64039 24.7821L6.63262 24.7806C5.50759 25.9799 5.48484 27.7888 5.4803 28.4888C5.47599 29.1891 7.8844 28.6378 7.8844 28.6378Z" fill="#31013C"/>
<path d="M10.6655 17.6295C10.793 17.4186 14.2394 10.5307 16.7724 9.02178C19.3616 7.47936 25.8931 6.96154 26.9624 6.83782L19.6838 7.6482C18.5824 7.77398 17.526 8.15693 16.5999 8.76607C15.6739 9.37522 14.9042 10.1934 14.3532 11.1546L10.6655 17.6295Z" fill="#C394FF"/>
<path d="M6.18185 32.836L16.8563 47.2608C17.9745 48.7718 19.7379 49.692 21.675 49.7746L39.2117 50.5222C39.6307 50.5401 40.0505 50.5188 40.4655 50.4586C41.4153 50.3189 42.3261 49.9848 43.1409 49.4772C43.9556 48.9695 44.6566 48.2993 45.2001 47.5085C45.5123 47.053 45.7673 46.5609 45.9595 46.0433L52.3015 28.9541C52.9812 27.1229 52.8057 25.1246 51.8227 23.503L42.8194 8.65365C42.1856 7.60838 41.6941 7.25838 41.6941 7.25838C40.6116 6.38582 39.3902 7.1892 39.3902 7.1892C36.4466 10.9685 29.0266 22.2525 30.7224 28.4981L29.1606 29.5255C29.1606 29.5255 23.5307 24.6462 6.14912 29.0547C5.77147 29.1507 5.1105 29.9053 5.16745 30.3892C5.45217 31.5282 5.44332 31.8384 6.18185 32.836Z" fill="#31013C"/>
<path d="M39.2071 50.6309L21.6706 49.8832C19.6962 49.799 17.9099 48.8669 16.7696 47.3259L6.09516 32.9008C5.36152 31.9079 4.93973 30.7195 4.88323 29.4864C4.82625 28.2297 5.12819 26.9825 5.75383 25.8903L14.2038 11.0036C14.7544 10.0364 15.5265 9.21313 16.4568 8.60119C17.3871 7.98924 18.4492 7.60604 19.556 7.48298L36.6558 5.60406C37.8892 5.46397 39.1371 5.67159 40.258 6.20343C41.3577 6.72615 42.2802 7.55865 42.9121 8.59852L51.9152 23.448C52.9186 25.1029 53.0964 27.1238 52.4029 28.9924L46.061 46.0813C45.5379 47.46 44.5953 48.6405 43.3658 49.4566C42.1363 50.2727 40.6819 50.6834 39.2071 50.6309ZM19.5795 7.69751C18.5067 7.81679 17.4773 8.18822 16.5756 8.78136C15.6738 9.37451 14.9254 10.1725 14.3917 11.11L5.94176 25.9967C4.70583 28.174 4.8343 30.8337 6.26895 32.7725L16.9434 47.1976C18.0447 48.6859 19.7711 49.5862 21.6799 49.6676L39.2165 50.4152C42.1179 50.539 44.8491 48.7259 45.8584 46.0064L52.2004 28.9175C52.8707 27.111 52.6995 25.1582 51.7304 23.5599L42.7273 8.71042C41.4992 6.68496 39.1252 5.54986 36.6793 5.81859L19.5795 7.69751Z" fill="#D530BE"/>
<path d="M35.2933 9.96557C35.3169 9.90561 35.3386 9.85163 35.3582 9.80484C35.3582 9.80484 35.3359 9.86075 35.2933 9.96557Z" fill="white"/>
<path d="M6.63242 24.7801C6.26912 25.3728 5.99422 26.0151 5.81638 26.6869C5.75324 26.9214 5.78009 27.1709 5.89166 27.3865C6.00324 27.6021 6.19147 27.7682 6.41944 27.8523C9.55378 28.9706 21.8624 24.8358 28.5816 28.6356C30.2092 29.2307 30.1408 27.467 30.1408 27.467L30.1525 27.4876C29.7419 22.353 33.4767 15.8289 36.6825 10.7796C39.6122 6.16518 38.1492 5.83126 35.4747 5.94711C39.1508 5.21686 41.0859 6.93159 41.0859 6.93159C41.0619 6.92503 41.0379 6.91897 41.0142 6.9134C40.6389 6.82966 40.2466 6.86702 39.8937 7.02009C39.5408 7.17317 39.2456 7.43408 39.0504 7.76528C36.5381 11.958 30.4168 21.1195 31.0013 27.4813C31.2787 30.5018 33.1166 31.3974 40.012 44.2921C29.7405 31.4356 30.8589 30.2397 26.7415 28.7404C20.8697 26.587 6.68692 28.8951 6.28244 29.0368C6.28244 29.0368 5.40706 29.3328 5.18133 30.1963C5.18133 30.1963 4.2784 28.1714 6.63242 24.7801Z" fill="#D530BE"/>
<path d="M27.1018 6.821L27.0996 6.82129C27.1015 6.82242 27.1024 6.82186 27.1024 6.82186L27.1018 6.821Z" fill="#923CFF"/>
<path d="M27.067 6.82531C27.0571 6.82628 27.0451 6.82749 27.0314 6.82935L27.067 6.82531Z" fill="#923CFF"/>
<path d="M45.3159 25.9842C45.1268 24.1896 44.0152 22.8362 42.8329 22.9613C41.6507 23.0864 40.8456 24.6426 41.0346 26.4372C41.2237 28.2317 42.3353 29.5851 43.5176 29.46C44.6998 29.335 45.505 27.7788 45.3159 25.9842Z" fill="#D530BE"/>
<path d="M33.3851 45.9986C33.8533 45.1659 33.2062 43.9154 31.9398 43.2055C30.6734 42.4955 29.2672 42.5951 28.799 43.4278C28.3307 44.2605 28.9778 45.511 30.2442 46.2209C31.5107 46.9309 32.9169 46.8313 33.3851 45.9986Z" fill="#D530BE"/>
<path d="M27.721 34.2301C28.1892 33.3974 27.5422 32.1468 26.2757 31.4369C25.0093 30.727 23.6031 30.8266 23.1349 31.6593C22.6667 32.492 23.3137 33.7425 24.5802 34.4524C25.8466 35.1623 27.2528 35.0628 27.721 34.2301Z" fill="#D530BE"/>
<path d="M24.7337 40.4596C25.2019 39.6268 24.5549 38.3763 23.2884 37.6664C22.022 36.9565 20.6158 37.056 20.1476 37.8887C19.6794 38.7214 20.3264 39.972 21.5929 40.6819C22.8593 41.3918 24.2655 41.2923 24.7337 40.4596Z" fill="#D530BE"/>
<path d="M16.2113 35.9136C16.6795 35.0809 16.0324 33.8304 14.766 33.1205C13.4995 32.4106 12.0933 32.5101 11.6251 33.3428C11.1569 34.1755 11.804 35.4261 13.0704 36.136C14.3368 36.8459 15.743 36.7463 16.2113 35.9136Z" fill="#D530BE"/>
<path d="M22.1976 46.2925C22.6052 45.5677 22.042 44.4792 20.9396 43.8613C19.8373 43.2433 18.6133 43.33 18.2057 44.0548C17.7982 44.7796 18.3614 45.8681 19.4637 46.486C20.5661 47.104 21.7901 47.0173 22.1976 46.2925Z" fill="#D530BE"/>
<path d="M28.8624 12.7389C29.9982 11.9918 30.6362 10.957 30.2875 10.4277C29.9387 9.89839 28.7353 10.0749 27.5995 10.8221C26.4637 11.5692 25.8257 12.6039 26.1744 13.1332C26.5232 13.6625 27.7266 13.486 28.8624 12.7389Z" fill="#D530BE"/>
<path d="M14.9714 21.5511C16.0833 20.7647 16.687 19.7072 16.3199 19.1891C15.9528 18.671 14.7539 18.8884 13.6421 19.6748C12.5302 20.4612 11.9265 21.5187 12.2936 22.0368C12.6607 22.5549 13.8596 22.3375 14.9714 21.5511Z" fill="#D530BE"/>
<path d="M20.0413 20.9358C21.2118 20.1658 21.8694 19.0994 21.51 18.5539C21.1506 18.0083 19.9102 18.1903 18.7397 18.9603C17.5691 19.7303 16.9115 20.7967 17.2709 21.3423C17.6304 21.8878 18.8707 21.7058 20.0413 20.9358Z" fill="#D530BE"/>
<path d="M23.7763 13.4619C24.8505 12.7553 25.454 11.7767 25.1241 11.2761C24.7943 10.7754 23.6561 10.9424 22.5819 11.649C21.5077 12.3557 20.9042 13.3343 21.2341 13.8349C21.5639 14.3355 22.7021 14.1685 23.7763 13.4619Z" fill="#D530BE"/>
<path d="M19.1891 14.0896C20.2759 13.3747 20.8865 12.3845 20.5527 11.878C20.219 11.3715 19.0674 11.5404 17.9806 12.2554C16.8938 12.9703 16.2832 13.9604 16.6169 14.4669C16.9507 14.9734 18.1022 14.8045 19.1891 14.0896Z" fill="#D530BE"/>
<path d="M25.2836 20.3154C26.5224 19.5005 27.2183 18.3719 26.8379 17.7946C26.4576 17.2173 25.1449 17.4099 23.9061 18.2247C22.6673 19.0396 21.9714 20.1682 22.3518 20.7455C22.7322 21.3229 24.0448 21.1303 25.2836 20.3154Z" fill="#D530BE"/>
</svg>
