<svg width="222" height="223" viewBox="0 0 222 223" fill="none" xmlns="http://www.w3.org/2000/svg">
<path d="M42.5195 66.3791L36.4834 129.037C35.8512 135.601 38.2877 142.139 43.143 146.901L87.1004 190.016C90.7588 193.567 95.4409 195.88 100.484 196.627C105.528 197.375 110.677 196.519 115.204 194.181L171.85 164.522C177.921 161.344 182.154 155.723 183.398 149.189L194.787 89.3471C195.572 85.1976 195.118 80.9077 193.48 77.0121C191.831 73.0921 189.123 69.7067 185.66 67.2346L136.676 31.991C133.548 29.7532 129.937 28.2847 126.136 27.7052C122.334 27.1257 118.451 27.4516 114.801 28.6563L57.8302 47.6262C53.7303 48.9742 50.0958 51.4517 47.3446 54.7736C44.6144 58.0741 42.9341 62.1155 42.5195 66.3791Z" fill="#46A3F5"/>
<path d="M56.8174 59.4288C113.996 94.4099 112.523 119.667 112.523 119.667C122.207 93.243 169.612 83.4572 182.832 78.105C196.052 72.7543 182 65.049 182 65.049C182 65.049 181.947 65.0791 181.848 65.136C181.482 64.5763 181.014 64.0899 180.469 63.702L158.118 47.6718L158.118 47.6703L158.116 47.6684C158.106 47.6622 158.073 47.6388 158.017 47.5997C157.991 47.5804 157.959 47.5572 157.922 47.5316C157.866 47.4925 157.8 47.4441 157.724 47.3896L136.849 32.4161C133.683 30.1586 130.03 28.6769 126.186 28.0909C122.342 27.5049 118.415 27.8311 114.723 29.043L89.9108 37.2645L89.8914 37.2707L63.7703 45.9252C63.3691 46.0577 62.9849 46.2366 62.6254 46.4582L62.6089 46.4358C56.8609 46.9213 52.5555 51.583 50.9004 53.397C49.2452 55.2124 56.8174 59.4288 56.8174 59.4288Z" fill="#32023E"/>
<path d="M89.907 37.2636C90.7346 37.013 115.887 27.1488 126.032 29.1615C136.401 31.2188 154.642 45.201 157.72 47.3887L136.845 32.4152C133.679 30.1577 130.026 28.676 126.182 28.09C122.338 27.504 118.411 27.8302 114.719 29.0421L89.907 37.2636Z" fill="#C394FF"/>
<path d="M42.5218 66.3797L36.4857 129.038C35.8535 135.601 38.29 142.139 43.1453 146.902L87.1027 190.017C88.153 191.047 89.2972 191.976 90.5205 192.794C93.3241 194.659 96.4826 195.927 99.7979 196.516C103.113 197.105 106.514 197.004 109.787 196.218C111.67 195.763 113.49 195.079 115.206 194.181L171.853 164.523C177.923 161.345 182.157 155.724 183.401 149.189L194.79 89.3477C195.591 85.1352 195.132 83.0693 195.132 83.0693C194.358 78.2536 189.289 77.4808 189.289 77.4808C172.744 80.4222 126.914 92.418 116.673 112.679L110.191 111.691C110.191 111.691 106.969 85.7564 51.3126 56.4465C50.1028 55.8102 46.6085 56.2256 45.6211 57.6206C43.6896 61.258 42.9384 62.0457 42.5218 66.3797Z" fill="#32023E"/>
<path d="M86.8356 190.286L42.8788 147.172C37.9298 142.318 35.4614 135.695 36.1064 129.001L42.1434 66.3425C42.5619 62.0322 44.252 57.9443 46.9994 54.5973C49.8007 51.1879 53.5154 48.6457 57.7101 47.2674L114.682 28.2981C118.387 27.0695 122.333 26.7359 126.194 27.3246C130.056 27.9133 133.723 29.4075 136.897 31.6848L185.881 66.9272C189.425 69.4575 192.191 72.9279 193.864 76.9456C195.504 80.8896 195.954 85.2251 195.16 89.419L183.771 149.261C182.501 155.93 178.221 161.615 172.027 164.858L115.381 194.516C110.781 196.882 105.553 197.746 100.432 196.988C95.3116 196.229 90.5564 193.885 86.8356 190.286ZM136.455 32.2992C133.379 30.0918 129.823 28.6435 126.081 28.0729C122.338 27.5023 118.514 27.8257 114.922 29.0164L57.9503 47.9858C49.6175 50.7601 43.7091 57.9945 42.8977 66.416L36.8607 129.075C36.2378 135.539 38.6246 141.939 43.4093 146.632L87.3661 189.746C94.6385 196.88 106.014 198.565 115.029 193.845L171.675 164.187C177.663 161.052 181.8 155.56 183.026 149.119L194.416 89.2768C195.969 81.1143 192.446 72.5828 185.439 67.5416L136.455 32.2992Z" fill="#46A3F5"/>
<path d="M172.094 75.097C172.297 74.9959 172.48 74.9063 172.641 74.8302C172.641 74.8302 172.452 74.9238 172.094 75.097Z" fill="white"/>
<path d="M62.607 46.4367C60.2687 47.1288 58.0442 48.158 56.0037 49.4916C55.2886 49.9546 54.7729 50.6681 54.5576 51.492C54.3423 52.3159 54.4431 53.1908 54.8401 53.945C60.385 64.2178 102.175 82.333 110.771 108.011C113.616 113.382 117.578 108.625 117.578 108.625L117.56 108.706C128.543 94.3576 153.593 86.1187 173.802 80.4821C192.271 75.331 189.241 71.0262 181.998 65.0502C193.294 71.7759 194.314 80.7881 194.314 80.7881C194.266 80.7145 194.218 80.6426 194.169 80.5723C193.387 79.473 192.277 78.6495 190.998 78.2202C189.719 77.7909 188.337 77.7779 187.051 78.1831C170.66 83.2146 133.198 92.7266 119.787 110.682C113.42 119.206 116.109 125.855 103.814 175.654C107.219 118.03 112.941 117.537 105.728 103.964C95.4773 84.5675 53.0894 57.2911 51.7023 56.7112C51.7023 56.7112 48.7257 55.4278 46.1102 57.1488C46.1102 57.1488 48.5101 49.7508 62.607 46.4367Z" fill="#46A3F5"/>
<path d="M158.115 47.6682L158.112 47.666C158.113 47.6697 158.115 47.67 158.115 47.67L158.115 47.6682Z" fill="#923CFF"/>
<path d="M158.017 47.6C157.99 47.5799 157.957 47.5558 157.918 47.5293L158.017 47.6Z" fill="#923CFF"/>
<path d="M160.619 140.383C164.338 135.261 164.618 129.124 161.242 126.674C157.867 124.225 152.115 126.392 148.395 131.514C144.676 136.635 144.396 142.773 147.772 145.222C151.147 147.671 156.899 145.504 160.619 140.383Z" fill="#46A3F5"/>
<path d="M82.5372 164.546C85.7123 163.475 86.9612 158.696 85.3264 153.873C83.6917 149.049 79.7925 146.008 76.6174 147.079C73.4422 148.151 72.1934 152.93 73.8281 157.753C75.4628 162.576 79.362 165.618 82.5372 164.546Z" fill="#46A3F5"/>
<path d="M95.3955 120.572C98.5706 119.5 99.8195 114.721 98.1848 109.898C96.5501 105.075 92.6509 102.033 89.4757 103.105C86.3005 104.176 85.0517 108.955 86.6864 113.778C88.3211 118.602 92.2203 121.643 95.3955 120.572Z" fill="#46A3F5"/>
<path d="M72.9863 129.798C76.1615 128.727 77.4103 123.948 75.7756 119.125C74.141 114.301 70.2418 111.26 67.0666 112.331C63.8914 113.403 62.6426 118.182 64.2773 123.005C65.912 127.828 69.8111 130.87 72.9863 129.798Z" fill="#46A3F5"/>
<path d="M61.4444 97.9407C64.6196 96.8692 65.8684 92.0905 64.2337 87.2672C62.599 82.4439 58.6998 79.4025 55.5246 80.474C52.3494 81.5454 51.1006 86.3241 52.7353 91.1474C54.37 95.9708 58.2692 99.0122 61.4444 97.9407Z" fill="#46A3F5"/>
<path d="M52.6776 139.048C55.4414 138.116 56.5284 133.956 55.1055 129.758C53.6826 125.559 50.2886 122.912 47.5248 123.844C44.761 124.777 43.674 128.937 45.0969 133.135C46.5198 137.333 49.9138 139.981 52.6776 139.048Z" fill="#46A3F5"/>
<path d="M148.817 67.2331C153.531 67.9519 157.623 66.7523 157.957 64.5539C158.29 62.3555 154.739 59.9908 150.024 59.272C145.31 58.5533 141.218 59.7529 140.885 61.9513C140.551 64.1497 144.102 66.5144 148.817 67.2331Z" fill="#46A3F5"/>
<path d="M91.9271 57.5941C96.6712 58.1542 100.727 56.8149 100.987 54.6025C101.246 52.3902 97.6105 50.1427 92.8664 49.5826C88.1222 49.0224 84.0661 50.3618 83.8068 52.5741C83.5474 54.7865 87.183 57.034 91.9271 57.5941Z" fill="#46A3F5"/>
<path d="M106.582 67.8939C111.441 68.6346 115.659 67.3983 116.002 65.1326C116.346 62.8668 112.686 60.4296 107.827 59.6889C102.968 58.9481 98.7507 60.1844 98.407 62.4502C98.0634 64.7159 101.724 67.1531 106.582 67.8939Z" fill="#46A3F5"/>
<path d="M133.866 57.1782C138.325 57.8579 142.195 56.7234 142.51 54.6442C142.826 52.565 139.467 50.3285 135.008 49.6487C130.549 48.969 126.679 50.1035 126.364 52.1827C126.048 54.2619 129.407 56.4985 133.866 57.1782Z" fill="#46A3F5"/>
<path d="M120.429 48.0429C124.94 48.7307 128.856 47.5829 129.175 45.4792C129.494 43.3756 126.096 41.1127 121.584 40.4249C117.073 39.7372 113.157 40.885 112.838 42.9887C112.519 45.0924 115.918 47.3552 120.429 48.0429Z" fill="#46A3F5"/>
<path d="M121.706 78.5771C126.848 79.361 131.311 78.0527 131.675 75.6549C132.039 73.2571 128.165 70.6779 123.023 69.894C117.881 69.1101 113.418 70.4184 113.054 72.8162C112.691 75.214 116.564 77.7932 121.706 78.5771Z" fill="#46A3F5"/>
</svg>
