<svg width="166" height="165" viewBox="0 0 166 165" fill="none" xmlns="http://www.w3.org/2000/svg">
<g filter="url(#filter0_d_131_5346)">
<mask id="path-1-inside-1_131_5346" fill="white">
<path d="M161.493 78.5888C161.493 121.881 126.398 156.975 83.1064 156.975C39.8146 156.975 4.71973 121.881 4.71973 78.5888C4.71973 35.297 39.8146 0.202148 83.1064 0.202148C126.398 0.202148 161.493 35.297 161.493 78.5888ZM14.5569 78.5888C14.5569 116.448 45.2475 147.138 83.1064 147.138C120.965 147.138 151.656 116.448 151.656 78.5888C151.656 40.7299 120.965 10.0393 83.1064 10.0393C45.2475 10.0393 14.5569 40.7299 14.5569 78.5888Z"/>
</mask>
<path d="M161.493 78.5888C161.493 121.881 126.398 156.975 83.1064 156.975C39.8146 156.975 4.71973 121.881 4.71973 78.5888C4.71973 35.297 39.8146 0.202148 83.1064 0.202148C126.398 0.202148 161.493 35.297 161.493 78.5888ZM14.5569 78.5888C14.5569 116.448 45.2475 147.138 83.1064 147.138C120.965 147.138 151.656 116.448 151.656 78.5888C151.656 40.7299 120.965 10.0393 83.1064 10.0393C45.2475 10.0393 14.5569 40.7299 14.5569 78.5888Z" fill="#252530"/>
<path d="M161.493 78.5888C161.493 121.881 126.398 156.975 83.1064 156.975C39.8146 156.975 4.71973 121.881 4.71973 78.5888C4.71973 35.297 39.8146 0.202148 83.1064 0.202148C126.398 0.202148 161.493 35.297 161.493 78.5888ZM14.5569 78.5888C14.5569 116.448 45.2475 147.138 83.1064 147.138C120.965 147.138 151.656 116.448 151.656 78.5888C151.656 40.7299 120.965 10.0393 83.1064 10.0393C45.2475 10.0393 14.5569 40.7299 14.5569 78.5888Z" stroke="url(#paint0_linear_131_5346)" stroke-width="14" mask="url(#path-1-inside-1_131_5346)"/>
</g>
<path d="M49.7888 67.2898L54.7136 95.2537C55.2296 98.183 57.0763 100.731 59.7606 102.217L84.0625 115.662C86.0806 116.765 88.3945 117.207 90.6769 116.924C92.9592 116.641 95.0944 115.649 96.7804 114.087L117.831 94.3705C120.087 92.2577 121.25 89.3043 121.003 86.314L118.745 58.9295C118.586 57.0311 117.872 55.2212 116.69 53.7251C115.501 52.2198 113.916 51.0744 112.113 50.4171L86.5744 40.9984C84.9454 40.4024 83.1987 40.1992 81.4765 40.4052C79.7543 40.6113 78.1055 41.2208 76.6642 42.1841L54.1849 57.2936C52.5652 58.3735 51.2837 59.8883 50.488 61.6638C49.6989 63.4274 49.4553 65.3865 49.7888 67.2898Z" fill="#D530BE"/>
<path d="M55.1656 62.5463C84.2349 70.8636 86.6374 82.0199 86.6374 82.0199C87.6635 69.3672 107.091 59.4023 112.193 55.4832C117.294 51.5647 110.258 49.9081 110.258 49.9081C110.258 49.9081 110.239 49.9276 110.202 49.9643C109.976 49.7651 109.714 49.61 109.43 49.507L97.7834 45.2316L97.7833 45.2309L97.7819 45.2304C97.7769 45.2289 97.7596 45.2228 97.7308 45.2124C97.7171 45.2072 97.7005 45.2009 97.6812 45.1943C97.6524 45.184 97.6177 45.1709 97.5781 45.1564L86.7 41.1625C85.0517 40.5627 83.2854 40.3586 81.5439 40.567C79.8025 40.7754 78.1348 41.3902 76.6757 42.3619L66.8807 48.9249L66.873 48.9299L56.5611 55.8388C56.4027 55.9448 56.2573 56.0688 56.1277 56.2085L56.1178 56.2007C53.6777 57.1042 52.3678 59.6493 51.8669 60.6372C51.3661 61.6258 55.1656 62.5463 55.1656 62.5463Z" fill="#31013C"/>
<path d="M66.8785 48.9234C67.208 48.7147 76.953 41.3967 81.6053 41.0494C86.3608 40.6944 95.9743 44.5748 97.5758 45.1549L86.6977 41.1611C85.0495 40.5612 83.2831 40.3572 81.5417 40.5655C79.8002 40.7739 78.1325 41.3888 76.6735 42.3604L66.8785 48.9234Z" fill="#C394FF"/>
<path d="M49.7896 67.2897L54.7144 95.2536C55.2304 98.1828 57.0771 100.731 59.7614 102.217L84.0634 115.662C84.644 115.983 85.2534 116.25 85.8836 116.458C87.3271 116.931 88.8527 117.101 90.3648 116.958C91.8769 116.815 93.343 116.361 94.671 115.625C95.4348 115.201 96.1435 114.684 96.7812 114.087L117.832 94.3703C120.088 92.2575 121.251 89.3041 121.004 86.3138L118.746 58.9293C118.586 57.0016 118.138 56.1589 118.138 56.1589C117.221 54.1588 114.925 54.4336 114.925 54.4336C108.087 57.7054 89.6109 68.4411 87.6003 78.4821L84.6632 78.8335C84.6632 78.8335 80.1384 67.9482 52.4141 61.9127C51.8116 61.7819 50.3427 62.3834 50.0816 63.1088C49.6802 64.9226 49.4485 65.3555 49.7896 67.2897Z" fill="#31013C"/>
<path d="M83.9794 115.812L59.6778 102.366C56.9417 100.852 55.0708 98.2706 54.5448 95.2833L49.6203 67.319C49.2829 65.3949 49.5251 63.4143 50.3161 61.6284C51.1231 59.8089 52.4316 58.2563 54.0889 57.1518L76.5684 42.0426C78.0312 41.0621 79.7059 40.4418 81.4554 40.2324C83.2049 40.0231 84.9793 40.2308 86.6334 40.8383L112.172 50.2565C114.017 50.9294 115.637 52.1048 116.849 53.6496C118.037 55.1665 118.755 56.9968 118.915 58.9155L121.173 86.3001C121.425 89.352 120.249 92.3389 117.948 94.4948L96.8973 114.211C95.1828 115.794 93.0143 116.799 90.697 117.086C88.3798 117.374 86.0304 116.928 83.9794 115.812ZM86.5151 41.1587C84.9119 40.5698 83.192 40.3685 81.4962 40.5714C79.8005 40.7743 78.1772 41.3755 76.7593 42.3259L54.2798 57.4352C50.9919 59.645 49.2952 63.5016 49.957 67.26L54.8815 95.2243C55.3896 98.1095 57.1981 100.604 59.8433 102.067L84.1449 115.513C88.1656 117.738 93.3134 117.1 96.6634 113.962L117.714 94.2456C119.939 92.1614 121.076 89.2755 120.833 86.328L118.574 58.9434C118.266 55.2081 115.707 51.924 112.054 50.5768L86.5151 41.1587Z" fill="#D530BE"/>
<path d="M107.163 55.4686C107.239 55.4004 107.308 55.3393 107.369 55.2869C107.369 55.2869 107.298 55.3503 107.163 55.4686Z" fill="white"/>
<path d="M56.1176 56.2014C55.1846 56.784 54.3416 57.4993 53.6153 58.3249C53.3603 58.6123 53.222 58.9845 53.2277 59.3686C53.2334 59.7527 53.3826 60.1209 53.646 60.4009C57.2939 64.1983 77.6421 67.0381 84.4718 77.1644C86.356 79.1565 87.505 76.6111 87.505 76.6111L87.5069 76.6485C90.5524 69.0885 100.449 62.4892 108.555 57.6044C115.962 53.1403 114.126 51.634 110.258 49.909C115.979 51.4716 117.507 55.2663 117.507 55.2663C117.478 55.2401 117.448 55.2146 117.419 55.1899C116.946 54.8063 116.364 54.582 115.757 54.5495C115.149 54.517 114.547 54.6779 114.036 55.009C107.518 59.1708 92.3793 67.8187 88.7131 77.2392C86.9725 81.7118 88.9421 84.278 89.597 107.406C84.1349 81.9474 86.5632 81.044 81.7924 76.0129C74.9997 68.8164 53.2881 62.0663 52.6153 61.9813C52.6153 61.9813 51.1668 61.782 50.2372 62.8453C50.2372 62.8453 50.3892 59.3403 56.1176 56.2014Z" fill="#D530BE"/>
<path d="M97.7822 45.2311L97.7803 45.2305C97.7814 45.2321 97.7823 45.232 97.7823 45.232L97.7822 45.2311Z" fill="#923CFF"/>
<path d="M97.7314 45.2123C97.7172 45.2068 97.6999 45.2002 97.6797 45.1934L97.7314 45.2123Z" fill="#923CFF"/>
<path d="M110.039 85.2307C111.039 82.5562 110.421 79.8547 108.659 79.1967C106.896 78.5387 104.657 80.1734 103.657 82.8479C102.657 85.5224 103.275 88.2238 105.038 88.8818C106.8 89.5398 109.039 87.9051 110.039 85.2307Z" fill="#D530BE"/>
<path d="M79.0093 105.14C80.2605 104.292 80.2276 102.064 78.9359 100.165C77.6443 98.2649 75.5829 97.4126 74.3318 98.2609C73.0806 99.1092 73.1135 101.337 74.4052 103.237C75.6969 105.136 77.7582 105.989 79.0093 105.14Z" fill="#D530BE"/>
<path d="M79.3023 84.4763C80.5534 83.628 80.5205 81.4003 79.2289 79.5006C77.9372 77.6009 75.8759 76.7486 74.6247 77.5969C73.3736 78.4451 73.4065 80.6728 74.6981 82.5725C75.9898 84.4722 78.0511 85.3246 79.3023 84.4763Z" fill="#D530BE"/>
<path d="M70.6724 91.1872C71.9235 90.3389 71.8907 88.1112 70.599 86.2115C69.3073 84.3118 67.246 83.4595 65.9949 84.3078C64.7437 85.1561 64.7766 87.3838 66.0683 89.2835C67.3599 91.1832 69.4213 92.0355 70.6724 91.1872Z" fill="#D530BE"/>
<path d="M61.816 78.7301C63.0671 77.8819 63.0342 75.6542 61.7426 73.7545C60.4509 71.8548 58.3895 71.0025 57.1384 71.8508C55.8873 72.699 55.9202 74.9267 57.2118 76.8264C58.5035 78.7261 60.5648 79.5784 61.816 78.7301Z" fill="#D530BE"/>
<path d="M62.9594 97.6541C64.0484 96.9157 64.0198 94.9766 62.8955 93.3231C61.7712 91.6695 59.9769 90.9276 58.8879 91.666C57.7988 92.4044 57.8275 94.3434 58.9518 95.997C60.0761 97.6505 61.8703 98.3924 62.9594 97.6541Z" fill="#D530BE"/>
<path d="M96.0974 54.8553C98.2333 54.5997 99.8676 53.5853 99.7477 52.5895C99.6278 51.5937 97.7991 50.9937 95.6632 51.2492C93.5274 51.5048 91.8931 52.5192 92.013 53.5149C92.1329 54.5107 93.9616 55.1108 96.0974 54.8553Z" fill="#D530BE"/>
<path d="M70.206 57.5193C72.3357 57.1912 73.9375 56.1203 73.7837 55.1274C73.6299 54.1345 71.7788 53.5955 69.6491 53.9236C67.5194 54.2516 65.9176 55.3225 66.0714 56.3154C66.2252 57.3083 68.0763 57.8473 70.206 57.5193Z" fill="#D530BE"/>
<path d="M77.8181 60.2309C80.0194 59.9675 81.7037 58.922 81.5802 57.8957C81.4566 56.8694 79.5719 56.2509 77.3706 56.5143C75.1693 56.7777 73.4849 57.8232 73.6085 58.8495C73.7321 59.8758 75.6168 60.4942 77.8181 60.2309Z" fill="#D530BE"/>
<path d="M88.3867 52.2854C90.4068 52.0437 91.9525 51.0843 91.8391 50.1425C91.7257 49.2007 89.9961 48.6332 87.976 48.8749C85.956 49.1166 84.4103 50.076 84.5237 51.0178C84.6371 51.9596 86.3666 52.5271 88.3867 52.2854Z" fill="#D530BE"/>
<path d="M81.4453 49.9337C83.4891 49.6891 85.0529 48.7185 84.9382 47.7656C84.8235 46.8127 83.0736 46.2385 81.0298 46.483C78.9859 46.7275 77.4221 47.6982 77.5368 48.6511C77.6516 49.604 79.4014 50.1782 81.4453 49.9337Z" fill="#D530BE"/>
<path d="M85.679 63.0525C88.0086 62.7737 89.7911 61.6673 89.6603 60.5812C89.5295 59.4951 87.535 58.8406 85.2054 59.1193C82.8758 59.3981 81.0933 60.5045 81.2241 61.5906C81.3549 62.6767 83.3494 63.3312 85.679 63.0525Z" fill="#D530BE"/>
<defs>
<filter id="filter0_d_131_5346" x="0.719727" y="0.202148" width="164.773" height="164.773" filterUnits="userSpaceOnUse" color-interpolation-filters="sRGB">
<feFlood flood-opacity="0" result="BackgroundImageFix"/>
<feColorMatrix in="SourceAlpha" type="matrix" values="0 0 0 0 0 0 0 0 0 0 0 0 0 0 0 0 0 0 127 0" result="hardAlpha"/>
<feOffset dy="4"/>
<feGaussianBlur stdDeviation="2"/>
<feComposite in2="hardAlpha" operator="out"/>
<feColorMatrix type="matrix" values="0 0 0 0 0 0 0 0 0 0 0 0 0 0 0 0 0 0 0.25 0"/>
<feBlend mode="normal" in2="BackgroundImageFix" result="effect1_dropShadow_131_5346"/>
<feBlend mode="normal" in="SourceGraphic" in2="effect1_dropShadow_131_5346" result="shape"/>
</filter>
<linearGradient id="paint0_linear_131_5346" x1="126.445" y1="-1.87574" x2="52.9343" y2="142.02" gradientUnits="userSpaceOnUse">
<stop stop-color="#00E1FF"/>
<stop offset="0.708333" stop-color="#FF00DA"/>
</linearGradient>
</defs>
</svg>
