<svg width="166" height="165" viewBox="0 0 166 165" fill="none" xmlns="http://www.w3.org/2000/svg">
<circle opacity="0.2" cx="83.3026" cy="78.7226" r="74.8866" stroke="url(#paint0_linear_131_5383)" stroke-width="7"/>
<g filter="url(#filter0_d_131_5383)">
<mask id="path-2-inside-1_131_5383" fill="white">
<path d="M161.493 78.5888C161.493 121.881 126.398 156.975 83.1064 156.975C39.8146 156.975 4.71973 121.881 4.71973 78.5888C4.71973 35.297 39.8146 0.202148 83.1064 0.202148C126.398 0.202148 161.493 35.297 161.493 78.5888ZM14.5569 78.5888C14.5569 116.448 45.2475 147.138 83.1064 147.138C120.965 147.138 151.656 116.448 151.656 78.5888C151.656 40.7299 120.965 10.0393 83.1064 10.0393C45.2475 10.0393 14.5569 40.7299 14.5569 78.5888Z"/>
</mask>
<path d="M161.493 78.5888C161.493 121.881 126.398 156.975 83.1064 156.975C39.8146 156.975 4.71973 121.881 4.71973 78.5888C4.71973 35.297 39.8146 0.202148 83.1064 0.202148C126.398 0.202148 161.493 35.297 161.493 78.5888ZM14.5569 78.5888C14.5569 116.448 45.2475 147.138 83.1064 147.138C120.965 147.138 151.656 116.448 151.656 78.5888C151.656 40.7299 120.965 10.0393 83.1064 10.0393C45.2475 10.0393 14.5569 40.7299 14.5569 78.5888Z" fill="#252530"/>
<path d="M161.493 78.5888C161.493 121.881 126.398 156.975 83.1064 156.975C39.8146 156.975 4.71973 121.881 4.71973 78.5888C4.71973 35.297 39.8146 0.202148 83.1064 0.202148C126.398 0.202148 161.493 35.297 161.493 78.5888ZM14.5569 78.5888C14.5569 116.448 45.2475 147.138 83.1064 147.138C120.965 147.138 151.656 116.448 151.656 78.5888C151.656 40.7299 120.965 10.0393 83.1064 10.0393C45.2475 10.0393 14.5569 40.7299 14.5569 78.5888Z" stroke="url(#paint1_linear_131_5383)" stroke-width="14" mask="url(#path-2-inside-1_131_5383)"/>
</g>
<path d="M49.5016 84.16L66.3919 106.984C68.1612 109.375 70.9514 110.831 74.0165 110.962L101.765 112.145C104.063 112.231 106.331 111.593 108.247 110.321C110.163 109.049 111.63 107.208 112.442 105.058L122.477 78.0177C123.552 75.1201 123.275 71.9582 121.719 69.3923L107.473 45.8962C106.484 44.2684 105.037 42.9677 103.312 42.1562C101.576 41.3402 99.6462 41.0227 97.7391 41.2395L70.6817 44.2122C68.958 44.406 67.3042 45.0039 65.8552 45.9571C64.4061 46.9103 63.2027 48.1918 62.3431 49.6971L48.973 73.2526C48.0057 74.942 47.5353 76.8695 47.6158 78.8134C47.6969 80.7439 48.3536 82.6057 49.5016 84.16Z" fill="#5131D8"/>
<path d="M52.1959 77.5153C81.9208 71.9811 89.051 80.8916 89.051 80.8916C84.3208 69.1115 97.2565 51.5221 100.072 45.7376C102.888 39.9538 95.8525 41.6124 95.8525 41.6124C95.8525 41.6124 95.8436 41.6387 95.8276 41.6877C95.5359 41.6105 95.2324 41.5886 94.9326 41.6231L82.6021 42.9966L82.6017 42.9961L82.6001 42.9962C82.595 42.9971 82.5768 42.9993 82.5464 43.003C82.5318 43.0044 82.5142 43.0062 82.4939 43.0089C82.4635 43.0125 82.4267 43.0163 82.3847 43.021L70.8678 44.3033C69.1251 44.5023 67.4535 45.1082 65.9882 46.0721C64.5229 47.0359 63.305 48.3306 62.4332 49.8514L56.5981 60.0967L56.5935 60.1047L50.4503 70.8903C50.3559 71.0558 50.2811 71.2318 50.2275 71.4146L50.2152 71.4121C48.435 73.3098 48.399 76.172 48.3919 77.2796C48.385 78.3877 52.1959 77.5153 52.1959 77.5153Z" fill="#31013C"/>
<path d="M56.5953 60.0956C56.797 59.7618 62.2503 48.8632 66.2582 46.4756C70.3551 44.035 80.6898 43.2157 82.3819 43.0199L70.8649 44.3022C69.1222 44.5012 67.4506 45.1071 65.9853 46.071C64.52 47.0348 63.3022 48.3295 62.4303 49.8503L56.5953 60.0956Z" fill="#C394FF"/>
<path d="M49.5022 84.1594L66.3925 106.984C68.1618 109.375 70.952 110.831 74.0171 110.961L101.765 112.144C102.428 112.173 103.093 112.139 103.749 112.044C105.252 111.823 106.693 111.294 107.983 110.491C109.272 109.688 110.381 108.627 111.241 107.376C111.735 106.655 112.138 105.876 112.442 105.057L122.477 78.0171C123.553 75.1195 123.275 71.9576 121.72 69.3917L107.474 45.8956C106.471 44.2417 105.693 43.6879 105.693 43.6879C103.98 42.3072 102.048 43.5784 102.048 43.5784C97.3902 49.5584 85.6495 67.413 88.3327 77.2956L85.8615 78.9211C85.8615 78.9211 76.9533 71.2006 49.4505 78.1763C48.8529 78.3282 47.807 79.5222 47.8972 80.2878C48.3477 82.0901 48.3337 82.5809 49.5022 84.1594Z" fill="#31013C"/>
<path d="M101.757 112.315L74.0092 111.132C70.8851 110.999 68.0585 109.524 66.2543 107.086L49.3641 84.2611C48.2033 82.69 47.5359 80.8096 47.4465 78.8584C47.3563 76.87 47.8341 74.8966 48.824 73.1684L62.1944 49.6131C63.0657 48.0827 64.2874 46.78 65.7594 45.8118C67.2314 44.8435 68.9119 44.2371 70.6632 44.0424L97.7202 41.0694C99.6719 40.8477 101.646 41.1763 103.42 42.0178C105.16 42.8449 106.62 44.1622 107.62 45.8075L121.865 69.3039C123.453 71.9225 123.734 75.1201 122.637 78.0768L112.602 105.117C111.774 107.298 110.283 109.166 108.337 110.457C106.392 111.749 104.091 112.399 101.757 112.315ZM70.7004 44.3819C69.0029 44.5706 67.3741 45.1583 65.9472 46.0969C64.5204 47.0354 63.3363 48.298 62.4917 49.7814L49.1214 73.3367C47.1658 76.7819 47.369 80.9903 49.6391 84.058L66.5292 106.883C68.2719 109.238 71.0035 110.662 74.0239 110.791L101.772 111.974C106.363 112.17 110.685 109.301 112.282 104.998L122.316 77.9582C123.377 75.0998 123.106 72.01 121.573 69.481L107.327 45.9846C105.384 42.7797 101.628 40.9836 97.7574 41.4088L70.7004 44.3819Z" fill="#5131D8"/>
<path d="M95.5652 47.9699C95.6024 47.8751 95.6368 47.7896 95.6677 47.7156C95.6677 47.7156 95.6326 47.8041 95.5652 47.9699Z" fill="white"/>
<path d="M50.2156 71.4116C49.6407 72.3494 49.2057 73.3658 48.9243 74.4288C48.8244 74.7998 48.8669 75.1946 49.0434 75.5358C49.22 75.8769 49.5178 76.1398 49.8785 76.2727C54.838 78.0423 74.3139 71.4998 84.9458 77.5122C87.5211 78.4537 87.4129 75.6631 87.4129 75.6631L87.4313 75.6958C86.7817 67.5712 92.6914 57.2481 97.7639 49.2586C102.4 41.9572 100.085 41.4288 95.8528 41.6121C101.669 40.4567 104.731 43.1699 104.731 43.1699C104.693 43.1595 104.655 43.1499 104.618 43.1411C104.024 43.0086 103.403 43.0677 102.845 43.3099C102.287 43.5521 101.819 43.965 101.511 44.489C97.5353 51.1232 87.8496 65.6195 88.7744 75.6858C89.2134 80.4651 92.1215 81.8822 103.032 102.285C86.7795 81.9426 88.5491 80.0503 82.0341 77.678C72.7432 74.2706 50.3018 77.9227 49.6618 78.1471C49.6618 78.1471 48.2767 78.6154 47.9195 79.9817C47.9195 79.9817 46.4908 76.7776 50.2156 71.4116Z" fill="#5131D8"/>
<path d="M82.6006 42.9958L82.5986 42.9961C82.6003 42.9971 82.6011 42.9966 82.6011 42.9966L82.6006 42.9958Z" fill="#923CFF"/>
<path d="M82.5469 43.0026C82.5317 43.0041 82.5133 43.0059 82.4922 43.0088L82.5469 43.0026Z" fill="#923CFF"/>
<path d="M111.425 73.3176C111.126 70.478 109.367 68.3365 107.496 68.5345C105.626 68.7324 104.352 71.1947 104.651 74.0343C104.95 76.8739 106.709 79.0153 108.58 78.8174C110.45 78.6195 111.724 76.1572 111.425 73.3176Z" fill="#5131D8"/>
<path d="M92.5463 104.985C93.2872 103.667 92.2633 101.688 90.2595 100.565C88.2556 99.4419 86.0305 99.5994 85.2897 100.917C84.5488 102.235 85.5727 104.213 87.5766 105.337C89.5804 106.46 91.8055 106.302 92.5463 104.985Z" fill="#5131D8"/>
<path d="M83.5834 86.3638C84.3243 85.0462 83.3004 83.0674 81.2966 81.9442C79.2927 80.8209 77.0677 80.9784 76.3268 82.2959C75.5859 83.6135 76.6098 85.5923 78.6137 86.7155C80.6175 87.8388 82.8426 87.6813 83.5834 86.3638Z" fill="#5131D8"/>
<path d="M78.8578 96.2212C79.5987 94.9036 78.5749 92.9248 76.571 91.8016C74.5671 90.6783 72.3421 90.8358 71.6012 92.1534C70.8604 93.4709 71.8842 95.4497 73.8881 96.573C75.8919 97.6963 78.117 97.5387 78.8578 96.2212Z" fill="#5131D8"/>
<path d="M65.3715 89.0278C66.1124 87.7102 65.0885 85.7315 63.0847 84.6082C61.0808 83.4849 58.8557 83.6424 58.1149 84.96C57.374 86.2776 58.3979 88.2563 60.4018 89.3796C62.4056 90.5029 64.6307 90.3454 65.3715 89.0278Z" fill="#5131D8"/>
<path d="M74.8425 105.451C75.4873 104.305 74.5961 102.582 72.8519 101.604C71.1077 100.627 69.1709 100.764 68.526 101.911C67.8812 103.058 68.7724 104.78 70.5166 105.758C72.2608 106.735 74.1976 106.598 74.8425 105.451Z" fill="#5131D8"/>
<path d="M85.3891 52.3603C87.1862 51.1782 88.1958 49.5409 87.644 48.7033C87.0922 47.8658 85.1879 48.1452 83.3908 49.3273C81.5936 50.5095 80.5841 52.1467 81.1359 52.9843C81.6877 53.8218 83.5919 53.5424 85.3891 52.3603Z" fill="#5131D8"/>
<path d="M63.41 66.3029C65.1693 65.0586 66.1245 63.3853 65.5437 62.5654C64.9628 61.7456 63.0658 62.0897 61.3065 63.334C59.5473 64.5782 58.592 66.2515 59.1728 67.0714C59.7537 67.8912 61.6507 67.5471 63.41 66.3029Z" fill="#5131D8"/>
<path d="M71.4318 65.331C73.2841 64.1126 74.3245 62.4252 73.7558 61.562C73.1871 60.6988 71.2245 60.9867 69.3723 62.2051C67.5201 63.4235 66.4796 65.1109 67.0483 65.9741C67.6171 66.8373 69.5796 66.5494 71.4318 65.331Z" fill="#5131D8"/>
<path d="M77.3426 53.5023C79.0423 52.3842 79.9972 50.8357 79.4753 50.0436C78.9534 49.2515 77.1524 49.5157 75.4526 50.6338C73.7529 51.7518 72.7981 53.3003 73.32 54.0925C73.8419 54.8846 75.6429 54.6204 77.3426 53.5023Z" fill="#5131D8"/>
<path d="M70.0817 54.4976C71.8014 53.3664 72.7674 51.7997 72.2394 50.9983C71.7114 50.1968 69.8892 50.4641 68.1695 51.5953C66.4498 52.7265 65.4837 54.2933 66.0118 55.0947C66.5398 55.8961 68.362 55.6288 70.0817 54.4976Z" fill="#5131D8"/>
<path d="M79.7258 64.3465C81.686 63.0571 82.7871 61.2714 82.1852 60.3579C81.5834 59.4444 79.5064 59.7491 77.5463 61.0384C75.5861 62.3278 74.485 64.1136 75.0869 65.0271C75.6887 65.9406 77.7657 65.6359 79.7258 64.3465Z" fill="#5131D8"/>
<defs>
<filter id="filter0_d_131_5383" x="0.719727" y="0.202148" width="164.773" height="164.773" filterUnits="userSpaceOnUse" color-interpolation-filters="sRGB">
<feFlood flood-opacity="0" result="BackgroundImageFix"/>
<feColorMatrix in="SourceAlpha" type="matrix" values="0 0 0 0 0 0 0 0 0 0 0 0 0 0 0 0 0 0 127 0" result="hardAlpha"/>
<feOffset dy="4"/>
<feGaussianBlur stdDeviation="2"/>
<feComposite in2="hardAlpha" operator="out"/>
<feColorMatrix type="matrix" values="0 0 0 0 0 0 0 0 0 0 0 0 0 0 0 0 0 0 0.25 0"/>
<feBlend mode="normal" in2="BackgroundImageFix" result="effect1_dropShadow_131_5383"/>
<feBlend mode="normal" in="SourceGraphic" in2="effect1_dropShadow_131_5383" result="shape"/>
</filter>
<linearGradient id="paint0_linear_131_5383" x1="45.1032" y1="10.1227" x2="122.101" y2="146.854" gradientUnits="userSpaceOnUse">
<stop/>
<stop offset="1" stop-opacity="0"/>
</linearGradient>
<linearGradient id="paint1_linear_131_5383" x1="126.445" y1="-1.87574" x2="52.9343" y2="142.02" gradientUnits="userSpaceOnUse">
<stop stop-color="#00E1FF"/>
<stop offset="0.708333" stop-color="#FF00DA"/>
</linearGradient>
</defs>
</svg>
