<svg width="166" height="165" viewBox="0 0 166 165" fill="none" xmlns="http://www.w3.org/2000/svg">
<circle opacity="0.2" cx="83.1064" cy="78.7226" r="74.8866" stroke="url(#paint0_linear_131_5414)" stroke-width="7"/>
<path d="M55.1542 59.0711L50.3233 84.3674C49.8173 87.0172 50.5623 89.7729 52.3599 91.8968L68.6345 111.124C69.9904 112.709 71.8102 113.829 73.8364 114.324C75.8626 114.82 77.9926 114.666 79.9251 113.885L104.124 103.947C106.717 102.883 108.654 100.753 109.409 98.1381L116.313 74.1918C116.79 72.5312 116.768 70.7664 116.248 69.1174C115.724 67.4581 114.75 65.9765 113.432 64.8384L94.812 48.6269C93.6228 47.597 92.2072 46.862 90.6807 46.4821C89.1541 46.1021 87.5597 46.0878 86.0275 46.4404L62.1012 52.0114C60.38 52.4053 58.8056 53.277 57.5591 54.5261C56.322 55.7672 55.4845 57.3499 55.1542 59.0711Z" fill="#46A3F5"/>
<path d="M61.2418 56.7812C83.2103 73.1959 81.6541 83.429 81.6541 83.429C86.5993 73.0314 106.281 70.8396 111.869 69.1597C117.457 67.4805 112.024 63.8097 112.024 63.8097C112.024 63.8097 112.001 63.8199 111.959 63.8394C111.831 63.5975 111.659 63.3817 111.452 63.203L102.953 55.8267L102.954 55.8261L102.952 55.8252C102.949 55.8224 102.936 55.8116 102.915 55.7935C102.905 55.7847 102.893 55.774 102.879 55.7621C102.858 55.7441 102.832 55.7219 102.804 55.6968L94.8665 48.8069C93.6622 47.7674 92.2303 47.0255 90.6866 46.6413C89.1429 46.2571 87.5309 46.2413 85.9808 46.5952L75.562 49.005L75.5539 49.0068L64.5854 51.5435C64.4169 51.5823 64.2537 51.6407 64.0988 51.7173L64.0929 51.7076C61.733 51.6877 59.8027 53.4238 59.0598 54.1001C58.3168 54.777 61.2418 56.7812 61.2418 56.7812Z" fill="#32023E"/>
<path d="M75.5609 49.0043C75.9075 48.9336 86.5271 45.8674 90.5836 47.0713C94.73 48.302 101.631 54.6884 102.802 55.6961L94.8654 48.8062C93.6611 47.7667 92.2292 47.0248 90.6855 46.6406C89.1418 46.2563 87.5298 46.2405 85.9797 46.5945L75.5609 49.0043Z" fill="#C394FF"/>
<path d="M55.1544 59.0717L50.3235 84.368C49.8175 87.0178 50.5626 89.7734 52.3602 91.8973L68.6348 111.125C69.0236 111.584 69.4545 112.006 69.9219 112.386C70.9934 113.252 72.2321 113.887 73.5603 114.253C74.8886 114.619 76.2778 114.706 77.6408 114.51C78.4251 114.396 79.1924 114.186 79.9254 113.885L104.124 103.948C106.717 102.883 108.655 100.754 109.409 98.1387L116.314 74.1924C116.8 72.5067 116.691 71.6477 116.691 71.6477C116.558 69.6567 114.522 69.1499 114.522 69.1499C107.671 69.7218 88.5474 72.8736 83.6086 80.7396L81.0052 80.0916C81.0052 80.0916 80.6746 69.4048 59.1116 55.358C58.6428 55.053 57.2037 55.09 56.7486 55.6208C55.8241 57.0295 55.4882 57.3219 55.1544 59.0717Z" fill="#32023E"/>
<path d="M68.5163 111.225L52.242 91.9973C50.4097 89.8325 49.6549 87.0411 50.171 84.3388L55.0023 59.0423C55.3359 57.3022 56.1792 55.7009 57.4251 54.4415C58.6953 53.1587 60.3048 52.2637 62.0658 51.861L85.9921 46.2903C87.5482 45.9301 89.168 45.9435 90.7188 46.3295C92.2695 46.7155 93.7072 47.4631 94.9139 48.5109L113.534 64.7219C114.882 65.8868 115.877 67.4052 116.407 69.1052C116.925 70.7739 116.945 72.5571 116.463 74.2355L109.557 98.1819C108.788 100.851 106.829 103.004 104.183 104.091L79.9846 114.028C78.0212 114.818 75.8587 114.972 73.8015 114.469C71.7442 113.966 69.8958 112.832 68.5163 111.225ZM94.7105 48.7445C93.5408 47.7288 92.1473 47.0042 90.6442 46.6301C89.1411 46.2559 87.5711 46.2429 86.0628 46.592L62.1364 52.1627C58.6369 52.9775 55.9561 55.7008 55.3068 59.1007L50.4755 84.3972C49.977 87.0072 50.7071 89.7044 52.4785 91.7973L68.7529 111.025C71.4454 114.206 76.0156 115.323 79.8665 113.742L104.065 103.804C106.623 102.754 108.516 100.673 109.26 98.0957L116.165 74.1494C117.107 70.8831 115.994 67.2742 113.331 64.9554L94.7105 48.7445Z" fill="#46A3F5"/>
<path d="M107.609 67.5279C107.695 67.4944 107.773 67.4648 107.841 67.4399C107.841 67.4399 107.761 67.4709 107.609 67.5279Z" fill="white"/>
<path d="M64.0924 51.7077C63.1136 51.9011 62.1685 52.2361 61.2867 52.7022C60.9779 52.8637 60.7408 53.1348 60.622 53.4623C60.5031 53.7898 60.511 54.15 60.6442 54.4723C62.5141 58.867 78.8523 67.8285 81.3816 78.6141C82.3376 80.9101 84.1316 79.1219 84.1316 79.1219L84.1211 79.1543C89.1383 73.7251 99.6549 71.3172 108.101 69.7861C115.819 68.3869 114.748 66.5185 112.024 63.8099C116.371 66.9774 116.445 70.6872 116.445 70.6872C116.428 70.6554 116.411 70.6243 116.394 70.5938C116.117 70.1164 115.696 69.7389 115.191 69.5156C114.686 69.2923 114.124 69.2347 113.585 69.3511C106.717 70.7802 91.0963 73.2369 84.9537 80.0436C82.0372 83.2752 82.8807 86.0854 75.9869 105.906C79.5555 82.5611 81.9053 82.5772 79.4807 76.7748C76.0391 68.4852 59.8043 55.7691 59.2612 55.4803C59.2612 55.4803 58.0972 54.8448 56.9666 55.4469C56.9666 55.4469 58.2243 52.5241 64.0924 51.7077Z" fill="#46A3F5"/>
<path d="M102.952 55.8247L102.951 55.8242C102.951 55.825 102.952 55.8251 102.952 55.8251L102.952 55.8247Z" fill="#923CFF"/>
<path d="M102.914 55.7936C102.904 55.7846 102.891 55.7738 102.877 55.7617L102.914 55.7936Z" fill="#923CFF"/>
<path d="M100.462 93.6887C102.171 91.7431 102.517 89.2535 101.235 88.128C99.9527 87.0026 97.5276 87.6674 95.8184 89.613C94.1092 91.5585 93.7631 94.0481 95.0454 95.1736C96.3277 96.2991 98.7527 95.6343 100.462 93.6887Z" fill="#46A3F5"/>
<path d="M67.739 100.575C69.073 100.259 69.7627 98.3597 69.2793 96.3329C68.796 94.3062 67.3227 92.9196 65.9887 93.2359C64.6547 93.5522 63.9651 95.4516 64.4484 97.4783C64.9317 99.5051 66.405 100.892 67.739 100.575Z" fill="#46A3F5"/>
<path d="M74.6433 83.1496C75.9773 82.8333 76.6669 80.9339 76.1836 78.9072C75.7003 76.8805 74.227 75.4939 72.893 75.8101C71.559 76.1264 70.8693 78.0258 71.3527 80.0526C71.836 82.0793 73.3092 83.4659 74.6433 83.1496Z" fill="#46A3F5"/>
<path d="M65.1638 86.0598C66.4978 85.7435 67.1875 83.8441 66.7041 81.8173C66.2208 79.7906 64.7475 78.404 63.4135 78.7203C62.0795 79.0366 61.3899 80.936 61.8732 82.9627C62.3565 84.9894 63.8298 86.376 65.1638 86.0598Z" fill="#46A3F5"/>
<path d="M61.6687 72.6457C63.0027 72.3294 63.6924 70.43 63.209 68.4033C62.7257 66.3765 61.2524 64.9899 59.9184 65.3062C58.5844 65.6225 57.8947 67.5219 58.3781 69.5486C58.8614 71.5754 60.3347 72.962 61.6687 72.6457Z" fill="#46A3F5"/>
<path d="M56.5411 89.059C57.7022 88.7837 58.3025 87.1304 57.8818 85.3662C57.4611 83.6021 56.1787 82.3952 55.0175 82.6705C53.8564 82.9458 53.2561 84.5991 53.6768 86.3632C54.0975 88.1274 55.3799 89.3343 56.5411 89.059Z" fill="#46A3F5"/>
<path d="M98.4238 63.4432C100.317 63.9145 102.03 63.5807 102.249 62.6978C102.468 61.8149 101.11 60.7171 99.2171 60.2458C97.3239 59.7746 95.6115 60.1083 95.3924 60.9913C95.1734 61.8742 96.5306 62.972 98.4238 63.4432Z" fill="#46A3F5"/>
<path d="M75.6138 57.3629C77.5252 57.7707 79.2283 57.3786 79.4177 56.4872C79.6071 55.5958 78.2111 54.5426 76.2997 54.1348C74.3884 53.727 72.6853 54.1191 72.4959 55.0105C72.3065 55.9019 73.7025 56.9551 75.6138 57.3629Z" fill="#46A3F5"/>
<path d="M81.194 62.1132C83.1453 62.5989 84.9102 62.2549 85.1359 61.345C85.3617 60.435 83.9629 59.3036 82.0116 58.8179C80.0603 58.3322 78.2955 58.6762 78.0697 59.5861C77.8439 60.4961 79.2427 61.6275 81.194 62.1132Z" fill="#46A3F5"/>
<path d="M92.7136 58.7812C94.5043 59.2269 96.1238 58.9113 96.331 58.0762C96.5382 57.2411 95.2546 56.2029 93.4639 55.7572C91.6733 55.3115 90.0537 55.6271 89.8465 56.4622C89.6394 57.2973 90.923 58.3355 92.7136 58.7812Z" fill="#46A3F5"/>
<path d="M87.5857 54.5519C89.3974 55.0028 91.036 54.6834 91.2456 53.8386C91.4552 52.9937 90.1565 51.9432 88.3448 51.4923C86.5331 51.0413 84.8945 51.3607 84.6849 52.2056C84.4753 53.0504 85.774 54.1009 87.5857 54.5519Z" fill="#46A3F5"/>
<path d="M86.9499 67.0381C89.0149 67.5521 90.8826 67.1881 91.1216 66.2251C91.3605 65.2621 89.8802 64.0648 87.8152 63.5508C85.7502 63.0368 83.8825 63.4008 83.6436 64.3638C83.4046 65.3268 84.8849 66.5241 86.9499 67.0381Z" fill="#46A3F5"/>
<g filter="url(#filter0_d_131_5414)">
<mask id="path-23-inside-1_131_5414" fill="white">
<path d="M161.493 78.5888C161.493 121.881 126.398 156.975 83.1064 156.975C39.8146 156.975 4.71973 121.881 4.71973 78.5888C4.71973 35.297 39.8146 0.202148 83.1064 0.202148C126.398 0.202148 161.493 35.297 161.493 78.5888ZM14.5569 78.5888C14.5569 116.448 45.2475 147.138 83.1064 147.138C120.965 147.138 151.656 116.448 151.656 78.5888C151.656 40.7299 120.965 10.0393 83.1064 10.0393C45.2475 10.0393 14.5569 40.7299 14.5569 78.5888Z"/>
</mask>
<path d="M161.493 78.5888C161.493 121.881 126.398 156.975 83.1064 156.975C39.8146 156.975 4.71973 121.881 4.71973 78.5888C4.71973 35.297 39.8146 0.202148 83.1064 0.202148C126.398 0.202148 161.493 35.297 161.493 78.5888ZM14.5569 78.5888C14.5569 116.448 45.2475 147.138 83.1064 147.138C120.965 147.138 151.656 116.448 151.656 78.5888C151.656 40.7299 120.965 10.0393 83.1064 10.0393C45.2475 10.0393 14.5569 40.7299 14.5569 78.5888Z" fill="#252530"/>
<path d="M161.493 78.5888C161.493 121.881 126.398 156.975 83.1064 156.975C39.8146 156.975 4.71973 121.881 4.71973 78.5888C4.71973 35.297 39.8146 0.202148 83.1064 0.202148C126.398 0.202148 161.493 35.297 161.493 78.5888ZM14.5569 78.5888C14.5569 116.448 45.2475 147.138 83.1064 147.138C120.965 147.138 151.656 116.448 151.656 78.5888C151.656 40.7299 120.965 10.0393 83.1064 10.0393C45.2475 10.0393 14.5569 40.7299 14.5569 78.5888Z" stroke="url(#paint1_linear_131_5414)" stroke-width="14" mask="url(#path-23-inside-1_131_5414)"/>
</g>
<defs>
<filter id="filter0_d_131_5414" x="0.719727" y="0.202148" width="164.773" height="164.773" filterUnits="userSpaceOnUse" color-interpolation-filters="sRGB">
<feFlood flood-opacity="0" result="BackgroundImageFix"/>
<feColorMatrix in="SourceAlpha" type="matrix" values="0 0 0 0 0 0 0 0 0 0 0 0 0 0 0 0 0 0 127 0" result="hardAlpha"/>
<feOffset dy="4"/>
<feGaussianBlur stdDeviation="2"/>
<feComposite in2="hardAlpha" operator="out"/>
<feColorMatrix type="matrix" values="0 0 0 0 0 0 0 0 0 0 0 0 0 0 0 0 0 0 0.25 0"/>
<feBlend mode="normal" in2="BackgroundImageFix" result="effect1_dropShadow_131_5414"/>
<feBlend mode="normal" in="SourceGraphic" in2="effect1_dropShadow_131_5414" result="shape"/>
</filter>
<linearGradient id="paint0_linear_131_5414" x1="44.9069" y1="10.1227" x2="121.904" y2="146.854" gradientUnits="userSpaceOnUse">
<stop/>
<stop offset="1" stop-opacity="0"/>
</linearGradient>
<linearGradient id="paint1_linear_131_5414" x1="126.445" y1="-1.87574" x2="52.9343" y2="142.02" gradientUnits="userSpaceOnUse">
<stop stop-color="#00E1FF"/>
<stop offset="0.708333" stop-color="#FF00DA"/>
</linearGradient>
</defs>
</svg>
