<svg width="166" height="165" viewBox="0 0 166 165" fill="none" xmlns="http://www.w3.org/2000/svg">
<circle opacity="0.2" cx="82.705" cy="78.7226" r="74.8866" stroke="url(#paint0_linear_131_5376)" stroke-width="7"/>
<g filter="url(#filter0_d_131_5376)">
<mask id="path-2-inside-1_131_5376" fill="white">
<path d="M161.493 78.5888C161.493 121.881 126.398 156.975 83.1064 156.975C39.8146 156.975 4.71973 121.881 4.71973 78.5888C4.71973 35.297 39.8146 0.202148 83.1064 0.202148C126.398 0.202148 161.493 35.297 161.493 78.5888ZM14.5569 78.5888C14.5569 116.448 45.2475 147.138 83.1064 147.138C120.965 147.138 151.656 116.448 151.656 78.5888C151.656 40.7299 120.965 10.0393 83.1064 10.0393C45.2475 10.0393 14.5569 40.7299 14.5569 78.5888Z"/>
</mask>
<path d="M161.493 78.5888C161.493 121.881 126.398 156.975 83.1064 156.975C39.8146 156.975 4.71973 121.881 4.71973 78.5888C4.71973 35.297 39.8146 0.202148 83.1064 0.202148C126.398 0.202148 161.493 35.297 161.493 78.5888ZM14.5569 78.5888C14.5569 116.448 45.2475 147.138 83.1064 147.138C120.965 147.138 151.656 116.448 151.656 78.5888C151.656 40.7299 120.965 10.0393 83.1064 10.0393C45.2475 10.0393 14.5569 40.7299 14.5569 78.5888Z" fill="#252530"/>
<path d="M161.493 78.5888C161.493 121.881 126.398 156.975 83.1064 156.975C39.8146 156.975 4.71973 121.881 4.71973 78.5888C4.71973 35.297 39.8146 0.202148 83.1064 0.202148C126.398 0.202148 161.493 35.297 161.493 78.5888ZM14.5569 78.5888C14.5569 116.448 45.2475 147.138 83.1064 147.138C120.965 147.138 151.656 116.448 151.656 78.5888C151.656 40.7299 120.965 10.0393 83.1064 10.0393C45.2475 10.0393 14.5569 40.7299 14.5569 78.5888Z" stroke="url(#paint1_linear_131_5376)" stroke-width="14" mask="url(#path-2-inside-1_131_5376)"/>
</g>
<path fill-rule="evenodd" clip-rule="evenodd" d="M61.9415 60.0687C60.2581 58.6913 59.2006 58.3365 58.92 57.773C58.6178 57.2304 58.402 55.5607 59.4164 54.3711C60.4308 53.1815 61.4236 52.3467 61.9415 52.2215C62.4379 52.0754 64.0351 52.785 65.1142 53.4111C66.1933 54.0372 66.107 54.3711 67.553 54.3711C68.999 54.3711 71.4379 54.225 73.5314 56.7295C75.6249 59.2339 75.4091 59.0252 75.6896 59.38C75.9702 59.7348 78.3443 60.6322 79.7256 60.5696C81.0853 60.507 84.1932 59.5261 85.5529 58.3365C86.9126 57.1469 89.5888 54.5172 93.3226 54.4337C97.0564 54.3711 103.013 54.4546 105.84 60.5487C108.711 66.7472 103.963 72.8622 100.078 74.4693C96.6463 75.8884 94.4017 76.8276 86.4162 76.9111C78.4306 76.9946 72.4523 77.1824 68.2868 81.6486C64.1214 86.094 69.9487 89.3707 73.8983 86.9288C77.8479 84.487 80.5889 81.8574 85.7687 79.7703C90.9485 77.6833 97.1427 76.4311 101.028 80.5425C104.912 84.654 102.819 89.9968 100.596 92.376C98.3729 94.7343 95.0492 96.8214 88.7255 97.531C82.4018 98.2197 81.5385 101.496 83.4809 102.602C85.4234 103.709 86.2867 103.583 91.5312 101.204C96.7758 98.8458 101.394 98.011 104.33 102.456C105.992 104.961 103.531 106.985 102.819 106.777C102.107 106.568 103.186 105.879 103.402 105.107C103.617 104.335 103.186 102.456 101.028 101.83C98.8693 101.204 96.4952 101.622 93.4737 103.771C90.4521 105.921 85.6392 109.26 80.373 105.503C75.1069 101.747 78.0637 96.5292 80.9558 94.5048C83.8263 92.4804 91.9629 92.5638 94.6175 89.0159C97.2722 85.4679 92.5672 84.3409 90.1499 85.614C86.4162 87.555 81.7327 92.856 76.5529 94.7343C71.3731 96.6127 61.9631 99.0336 58.3373 88.3272C54.733 77.6833 67.7688 70.7961 75.1069 70.3787C82.445 69.9613 85.8334 69.9613 89.783 69.9613C93.7326 69.9613 98.4161 68.563 98.9988 65.3698C99.5599 62.1558 95.8909 60.8409 93.8837 61.6757C91.8765 62.5106 89.7183 63.9089 87.56 65.2237C85.4018 66.5385 81.9702 69.2308 75.0422 66.3298C72.8839 65.4324 72.1717 65.7037 70.5098 65.7037C68.848 65.7037 66.0422 65.4324 64.5962 63.7628C63.1502 62.0932 62.8696 60.8409 61.9415 60.0687Z" fill="url(#paint2_linear_131_5376)"/>
<defs>
<filter id="filter0_d_131_5376" x="0.719727" y="0.202148" width="164.773" height="164.773" filterUnits="userSpaceOnUse" color-interpolation-filters="sRGB">
<feFlood flood-opacity="0" result="BackgroundImageFix"/>
<feColorMatrix in="SourceAlpha" type="matrix" values="0 0 0 0 0 0 0 0 0 0 0 0 0 0 0 0 0 0 127 0" result="hardAlpha"/>
<feOffset dy="4"/>
<feGaussianBlur stdDeviation="2"/>
<feComposite in2="hardAlpha" operator="out"/>
<feColorMatrix type="matrix" values="0 0 0 0 0 0 0 0 0 0 0 0 0 0 0 0 0 0 0.25 0"/>
<feBlend mode="normal" in2="BackgroundImageFix" result="effect1_dropShadow_131_5376"/>
<feBlend mode="normal" in="SourceGraphic" in2="effect1_dropShadow_131_5376" result="shape"/>
</filter>
<linearGradient id="paint0_linear_131_5376" x1="44.5056" y1="10.1227" x2="121.503" y2="146.854" gradientUnits="userSpaceOnUse">
<stop/>
<stop offset="1" stop-opacity="0"/>
</linearGradient>
<linearGradient id="paint1_linear_131_5376" x1="126.445" y1="-1.87574" x2="52.9343" y2="142.02" gradientUnits="userSpaceOnUse">
<stop stop-color="#00E1FF"/>
<stop offset="0.708333" stop-color="#FF00DA"/>
</linearGradient>
<linearGradient id="paint2_linear_131_5376" x1="95.7654" y1="51.4732" x2="68.2957" y2="99.3785" gradientUnits="userSpaceOnUse">
<stop stop-color="#00E1FF"/>
<stop offset="0.708333" stop-color="#FF00DA"/>
</linearGradient>
</defs>
</svg>
