<svg width="66" height="67" viewBox="0 0 66 67" fill="none" xmlns="http://www.w3.org/2000/svg">
<g clip-path="url(#clip0_131_5306)">
<path d="M32.9996 0.202148L3.98438 8.48115V23.0274C3.98438 41.7132 15.0876 58.5422 32.2259 65.8925L32.9996 66.2021L33.7733 65.8925C50.9117 58.5422 62.0149 41.7132 62.0149 23.0274V8.48115L32.9996 0.202148Z" fill="#E7E7E7"/>
<path d="M62.0153 8.48115V23.0274C62.0153 41.7132 50.912 58.5422 33.7737 65.8925L33 66.2021V0.202148L62.0153 8.48115Z" fill="#D3D3D8"/>
<path d="M33.0004 8.24902L11.7227 14.323V23.0275C11.7227 37.3415 19.5376 50.4177 32.0721 57.2267L33.0006 57.7297L33.9291 57.2267C46.4637 50.4177 54.2785 37.3416 54.2785 23.0275V14.323L33.0004 8.24902Z" fill="#C835ED"/>
<path d="M54.2778 14.323V23.0275C54.2778 37.3415 46.4628 50.4177 33.9284 57.2267L33 57.7296V8.24902L54.2778 14.323Z" fill="#5131D8"/>
<path fill-rule="evenodd" clip-rule="evenodd" d="M23.8094 19.9209C23.0879 19.2697 22.6346 19.102 22.5144 18.8356C22.3849 18.5791 22.2924 17.7898 22.7271 17.2275C23.1619 16.6651 23.5874 16.2705 23.8094 16.2113C24.0221 16.1422 24.7066 16.4777 25.1691 16.7736C25.6315 17.0696 25.5945 17.2275 26.2143 17.2275C26.834 17.2275 27.8792 17.1584 28.7764 18.3423C29.6736 19.5263 29.5811 19.4276 29.7014 19.5953C29.8216 19.763 30.8391 20.1873 31.4311 20.1577C32.0138 20.1281 33.3458 19.6644 33.9285 19.102C34.5112 18.5397 35.6582 17.2965 37.2584 17.2571C38.8586 17.2275 41.4115 17.2669 42.6232 20.1478C43.8534 23.078 41.8185 25.9687 40.1535 26.7284C38.6828 27.3993 37.7209 27.8433 34.2985 27.8827C30.8761 27.9222 28.3139 28.011 26.5288 30.1223C24.7436 32.2238 27.241 33.7727 28.9337 32.6184C30.6264 31.4641 31.8011 30.221 34.021 29.2344C36.2409 28.2478 38.8956 27.6558 40.5605 29.5994C42.2254 31.543 41.3282 34.0687 40.3755 35.1934C39.4228 36.3083 37.9983 37.2949 35.2882 37.6303C32.578 37.9559 32.208 39.5049 33.0405 40.0278C33.873 40.5506 34.243 40.4914 36.4906 39.3667C38.7383 38.2519 40.7177 37.8572 41.9757 39.9587C42.6879 41.1426 41.6335 42.0996 41.3282 42.0009C41.023 41.9023 41.4855 41.5767 41.578 41.2117C41.6705 40.8466 41.4855 39.9587 40.5605 39.6627C39.6355 39.3667 38.6181 39.564 37.3231 40.5802C36.0282 41.5964 33.9655 43.175 31.7086 41.3991C29.4516 39.6232 30.7189 37.1568 31.9583 36.1998C33.1885 35.2428 36.6756 35.2822 37.8133 33.605C38.9511 31.9278 36.9346 31.395 35.8987 31.9968C34.2985 32.9144 32.2913 35.4203 30.0714 36.3083C27.8515 37.1962 23.8186 38.3407 22.2647 33.2794C20.72 28.2478 26.3068 24.992 29.4516 24.7947C32.5965 24.5974 34.0487 24.5974 35.7414 24.5974C37.4341 24.5974 39.4413 23.9363 39.691 22.4269C39.9315 20.9075 38.3591 20.2859 37.4989 20.6806C36.6386 21.0752 35.7137 21.7362 34.7887 22.3578C33.8637 22.9793 32.393 24.2521 29.4239 22.8807C28.4989 22.4565 28.1937 22.5847 27.4815 22.5847C26.7692 22.5847 25.5668 22.4565 24.9471 21.6672C24.3273 20.8779 24.2071 20.2859 23.8094 19.9209Z" fill="white"/>
</g>
<defs>
<clipPath id="clip0_131_5306">
<rect width="66" height="66" fill="white" transform="translate(0 0.202148)"/>
</clipPath>
</defs>
</svg>
