<svg width="66" height="67" viewBox="0 0 66 67" fill="none" xmlns="http://www.w3.org/2000/svg">
<g clip-path="url(#clip0_131_5318)">
<path d="M64.35 0.202148H1.65C0.721875 0.202148 0 0.924023 0 1.85215V62.0771C0 63.0053 0.721875 63.7271 1.65 63.7271H64.35C65.2781 63.7271 66 63.0053 66 62.0771V1.85215C66 0.924023 65.2781 0.202148 64.35 0.202148Z" fill="#DADDE1"/>
<path d="M64.35 0.202148H1.65C0.721875 0.202148 0 0.924023 0 1.85215V2.78027C0 1.85215 0.721875 1.13027 1.65 1.13027H64.35C65.2781 1.13027 66 1.85215 66 2.78027V1.85215C66 0.924023 65.2781 0.202148 64.35 0.202148Z" fill="#EBEBEB"/>
<path d="M7.11523 7.73047H58.884V56.3023H7.11523V7.73047Z" fill="#C835ED"/>
<path d="M7.11523 54.8584H58.884V56.3022H7.11523V54.8584Z" fill="#848F99"/>
<path fill-rule="evenodd" clip-rule="evenodd" d="M20.5602 19.4127C19.5638 18.5111 18.9379 18.2789 18.7719 17.91C18.5931 17.5549 18.4653 16.462 19.0657 15.6834C19.666 14.9047 20.2536 14.3583 20.5602 14.2763C20.8539 14.1807 21.7992 14.6452 22.4378 15.055C23.0765 15.4648 23.0254 15.6834 23.8812 15.6834C24.737 15.6834 26.1804 15.5877 27.4194 17.227C28.6585 18.8663 28.5307 18.7297 28.6968 18.9619C28.8628 19.1941 30.2679 19.7815 31.0854 19.7406C31.8901 19.6996 33.7295 19.0575 34.5342 18.2789C35.3389 17.5002 36.9228 15.779 39.1326 15.7243C41.3424 15.6834 44.8678 15.738 46.5411 19.7269C48.24 23.7841 45.4299 27.7866 43.1307 28.8385C41.0997 29.7674 39.7713 30.3821 35.0451 30.4368C30.319 30.4914 26.7808 30.6144 24.3155 33.5377C21.8503 36.4474 25.2991 38.5922 27.6366 36.9939C29.9741 35.3956 31.5963 33.6743 34.6619 32.3083C37.7275 30.9422 41.3935 30.1226 43.6927 32.8137C45.9919 35.5049 44.7529 39.002 43.4372 40.5593C42.1216 42.1029 40.1545 43.469 36.4119 43.9334C32.6693 44.3842 32.1584 46.529 33.308 47.253C34.4576 47.977 34.9685 47.895 38.0724 46.3377C41.1763 44.7941 43.9098 44.2476 45.647 47.1573C46.6306 48.7966 45.1744 50.1217 44.7529 49.9851C44.3314 49.8485 44.97 49.3977 45.0978 48.8922C45.2255 48.3868 44.97 47.1573 43.6927 46.7475C42.4153 46.3377 41.0103 46.6109 39.222 48.018C37.4337 49.425 34.5853 51.6107 31.4686 49.1518C28.3519 46.6929 30.1018 43.2777 31.8135 41.9527C33.5123 40.6276 38.3279 40.6822 39.899 38.3599C41.4701 36.0376 38.6855 35.3 37.2549 36.1333C35.0451 37.4037 32.2733 40.8735 29.2077 42.1029C26.1421 43.3324 20.5729 44.917 18.427 37.9091C16.2939 30.9422 24.009 26.4342 28.3519 26.161C32.6948 25.8878 34.7002 25.8878 37.0378 25.8878C39.3753 25.8878 42.1471 24.9726 42.492 22.8825C42.8241 20.7788 40.6526 19.9181 39.4647 20.4646C38.2768 21.011 36.9994 21.9263 35.7221 22.7869C34.4448 23.6475 32.4138 25.4097 28.3136 23.5109C27.0362 22.9235 26.6147 23.1011 25.6312 23.1011C24.6476 23.1011 22.9871 22.9235 22.1313 21.8306C21.2755 20.7378 21.1094 19.9181 20.5602 19.4127Z" fill="white"/>
</g>
<defs>
<clipPath id="clip0_131_5318">
<rect width="66" height="66" fill="white" transform="translate(0 0.202148)"/>
</clipPath>
</defs>
</svg>
