<svg width="32" height="31" viewBox="0 0 32 31" fill="none" xmlns="http://www.w3.org/2000/svg">
<rect x="1.51316" y="0.644022" width="29.625" height="29.625" rx="14.8125" stroke="white" stroke-width="1.28804"/>
<path d="M22.038 16.9644C21.7641 17.1351 21.4419 17.1563 21.1974 17.0205C20.8862 16.8466 20.715 16.4421 20.715 15.878V14.1919C20.715 13.3779 20.3881 12.7983 19.8417 12.6418C18.916 12.3758 18.2192 13.4919 17.9577 13.9118L16.3248 16.5201V13.3321C16.3065 12.598 16.0647 12.1594 15.6058 12.0267C15.3012 11.9398 14.8469 11.9746 14.405 12.6405L10.7463 18.4283C10.2565 17.5122 10.0012 16.4922 10.0024 15.4568C10.0024 11.97 12.8388 9.13377 16.3248 9.13377C19.8103 9.13377 22.646 11.97 22.646 15.4568C22.6486 15.4684 22.6473 15.4787 22.6479 15.4909C22.6806 16.1665 22.4584 16.7036 22.038 16.9657V16.9644ZM24.0514 15.4574L24.0507 15.422C24.0311 11.176 20.5731 7.72852 16.3242 7.72852C12.0641 7.72852 8.59766 11.1953 8.59766 15.4568C8.59766 19.7176 12.0641 23.185 16.3242 23.185C18.2794 23.185 20.1456 22.4528 21.5778 21.1242C21.8622 20.8601 21.8785 20.4157 21.6151 20.1317C21.553 20.0642 21.4778 20.0095 21.3939 19.971C21.31 19.9324 21.2192 19.9107 21.1267 19.9072C21.0343 19.9036 20.942 19.9183 20.8554 19.9503C20.7687 19.9824 20.6894 20.0311 20.6222 20.0937C19.4613 21.1766 17.9234 21.78 16.3248 21.7798C14.4579 21.7798 12.7786 20.9664 11.6203 19.6751L14.9201 14.4553V16.862C14.9201 18.0174 15.375 18.3909 15.7568 18.5004C16.1385 18.6099 16.7216 18.5352 17.3341 17.555C17.9865 16.5155 18.6578 15.4317 19.3102 14.4122V15.878C19.3102 16.9586 19.7495 17.8229 20.515 18.248C21.2052 18.6324 22.0733 18.5977 22.78 18.1578C23.6376 17.6246 24.0991 16.6418 24.0507 15.4574H24.0514Z" fill="white"/>
</svg>
