<svg width="32" height="31" viewBox="0 0 32 31" fill="none" xmlns="http://www.w3.org/2000/svg">
<rect x="0.948465" y="0.644022" width="29.6285" height="29.6285" rx="14.8142" stroke="white" stroke-width="1.28804"/>
<path d="M13.1528 16.8429C12.3728 16.8429 11.7368 16.1341 11.7368 15.2671C11.7368 14.3994 12.357 13.6906 13.1535 13.6906C13.941 13.6906 14.586 14.3994 14.5703 15.2671C14.5703 16.1341 13.941 16.8429 13.1528 16.8429ZM18.3833 16.8421C17.6033 16.8421 16.9658 16.1334 16.9658 15.2664C16.9658 14.3986 17.5875 13.6899 18.3833 13.6899C19.1708 13.6899 19.8158 14.3986 19.8008 15.2664C19.8008 16.1334 19.179 16.8421 18.3833 16.8421ZM14.3565 9.69911L14.1255 9.27686L13.65 9.35636C12.5724 9.53604 11.5236 9.8589 10.5315 10.3164L10.3605 10.3951L10.254 10.5526C8.29429 13.4424 7.75654 16.2886 8.02279 19.0839L8.05204 19.3891L8.29954 19.5691C9.45244 20.415 10.7401 21.0599 12.108 21.4764L12.7005 21.6579L13.5353 19.6209C14.9678 19.9749 16.5578 19.9749 17.9895 19.6209L18.8198 21.6586L19.4123 21.4771C20.7813 21.0615 22.0697 20.4161 23.2223 19.5684L23.4675 19.3899L23.4975 19.0884C23.8245 15.8484 22.9748 13.0261 21.279 10.5504L21.1725 10.3944L21.0015 10.3164C20.0097 9.86098 18.9622 9.53821 17.886 9.35636L17.4225 9.27911L17.187 9.68561C17.121 9.79811 17.0543 9.92561 16.9898 10.0554C16.1762 9.97131 15.3561 9.97131 14.5425 10.0554C14.4788 9.92786 14.415 9.80486 14.3565 9.69911ZM11.799 18.9159C11.9468 19.0014 12.1028 19.0854 12.2565 19.1619L11.9198 19.9839C11.009 19.6519 10.1448 19.2036 9.34879 18.6504C9.18004 16.2969 9.65854 13.9216 11.2718 11.4729C11.9526 11.173 12.6623 10.9436 13.3898 10.7881C13.4348 10.8819 13.4768 10.9741 13.5113 11.0551L13.716 11.5374L14.235 11.4616C15.2521 11.3126 16.2855 11.3126 17.3025 11.4616L17.82 11.5366L18.024 11.0551C18.0593 10.9711 18.1005 10.8796 18.144 10.7881C18.8768 10.9456 19.5863 11.1781 20.265 11.4744C21.6713 13.5894 22.3808 15.9489 22.1745 18.6496C21.3786 19.2041 20.5138 19.6526 19.602 19.9839L19.2683 19.1626C19.4228 19.0861 19.5788 19.0021 19.728 18.9159C20.0955 18.7044 20.4908 18.4404 20.7428 18.1884L19.7828 17.2284C19.6605 17.3514 19.3905 17.5434 19.05 17.7399C18.717 17.9319 18.3863 18.0871 18.1748 18.1569C16.6725 18.6541 14.8538 18.6541 13.3508 18.1569C13.14 18.0871 12.8093 17.9319 12.4763 17.7399C12.1358 17.5441 11.8658 17.3514 11.7428 17.2284L10.7828 18.1884C11.0355 18.4404 11.4315 18.7044 11.799 18.9159Z" fill="white"/>
</svg>
