<svg width="31" height="31" viewBox="0 0 31 31" fill="none" xmlns="http://www.w3.org/2000/svg">
<rect x="0.5" y="0.5" width="29.913" height="29.913" rx="14.9565" stroke="white"/>
<path d="M21.7637 10.5072C21.5936 10.7983 21.4218 11.0481 21.2666 11.2046C21.1177 11.3546 21.0519 11.5681 21.0905 11.7759C21.1204 11.9366 21.1359 12.0967 21.1359 12.254C21.1359 16.1631 19.3179 18.8977 16.8177 20.2573C14.9094 21.2951 12.562 21.5547 10.2378 20.8795C11.2227 20.6227 12.1627 20.1927 13.0135 19.6026C13.204 19.4705 13.3088 19.2463 13.2879 19.0155C13.2671 18.7846 13.1238 18.5828 12.9128 18.487C11.4364 17.8166 10.5295 16.9553 9.97744 16.0647C9.42246 15.1694 9.2025 14.206 9.16229 13.3022C9.12469 12.4569 9.24511 11.6762 9.38673 11.0801C10.0238 11.7591 10.7719 12.3254 11.6009 12.7517C12.7999 13.3683 14.1305 13.6728 15.4738 13.6372C15.8227 13.6279 16.1008 13.3424 16.1008 12.9934V12.2756H16.1009L16.1007 12.2671C16.0938 11.7371 16.2464 11.2189 16.5363 10.7827C16.826 10.3466 17.2383 10.0142 17.7156 9.82802C18.1928 9.64194 18.7136 9.61023 19.2085 9.73673C19.7035 9.86327 20.1507 10.1426 20.4886 10.5395C20.6553 10.7354 20.9226 10.8133 21.1684 10.7376C21.3509 10.6815 21.5553 10.6001 21.7637 10.5072Z" stroke="white" stroke-width="1.28804" stroke-linecap="round" stroke-linejoin="round"/>
</svg>
