<svg width="32" height="31" viewBox="0 0 32 31" fill="none" xmlns="http://www.w3.org/2000/svg">
<rect x="1.07859" y="0.644022" width="29.625" height="29.625" rx="14.8125" stroke="white" stroke-width="1.28804"/>
<path fill-rule="evenodd" clip-rule="evenodd" d="M9.47042 17.0902C9.5085 17.1027 9.54767 17.1117 9.58742 17.1172C9.83821 17.6967 10.0876 18.2769 10.3356 18.8576C10.7814 19.9025 11.2309 20.9787 11.3292 21.2882C11.4525 21.669 11.5819 21.928 11.7237 22.1054C11.7973 22.1958 11.8815 22.2757 11.9808 22.3366C12.0325 22.3683 12.0878 22.394 12.1456 22.4131C12.4293 22.5174 12.6881 22.474 12.8504 22.4209C12.9455 22.3891 13.0361 22.3452 13.1198 22.2905L13.1243 22.2888L15.6293 20.757L18.5235 22.9321C18.566 22.9642 18.6121 22.9912 18.6617 23.0129C19.0092 23.1607 19.3461 23.2129 19.6634 23.1711C19.979 23.1277 20.2298 22.9982 20.4169 22.8512C20.6316 22.6815 20.8029 22.4647 20.9168 22.2184L20.9248 22.1992L20.9274 22.1923L20.9292 22.1888V22.1871L20.9301 22.1862C20.9455 22.1488 20.9574 22.1101 20.9656 22.0706L23.6071 9.00903C23.6155 8.96722 23.6196 8.92472 23.6195 8.88211C23.6195 8.49961 23.4724 8.13537 23.1276 7.91543C22.8315 7.72679 22.5026 7.71809 22.2943 7.73374C22.0709 7.75113 21.8635 7.80502 21.7243 7.84849C21.6464 7.87271 21.5696 7.89997 21.4939 7.93021L21.4841 7.93455L6.66843 13.6338L6.66666 13.6347C6.61653 13.6528 6.56715 13.6728 6.51862 13.6947C6.40114 13.7465 6.28844 13.8081 6.18178 13.879C5.98056 14.0137 5.51696 14.384 5.59586 14.996C5.65791 15.4829 5.99829 15.7828 6.2066 15.9271C6.32006 16.0062 6.42821 16.0627 6.50799 16.1001C6.54344 16.1175 6.61968 16.147 6.65247 16.1609L6.66134 16.1635L9.47042 17.0902ZM22.0027 9.13422H22.0009C21.9933 9.13754 21.9856 9.14073 21.9779 9.14378L7.14444 14.8509C7.13681 14.8539 7.12912 14.8568 7.12139 14.8596L7.11253 14.8622C7.08543 14.8726 7.05881 14.8842 7.03275 14.8969C7.05742 14.9108 7.08287 14.9233 7.10898 14.9343L9.89413 15.8541C9.9439 15.8705 9.99151 15.8927 10.036 15.9201L19.2344 10.639L19.2432 10.6347C19.279 10.6134 19.3156 10.5936 19.3532 10.5756C19.417 10.5434 19.5189 10.4964 19.6342 10.4617C19.7139 10.4373 19.9506 10.3687 20.2059 10.4495C20.3413 10.4914 20.462 10.5697 20.5542 10.6756C20.6463 10.7815 20.7063 10.9107 20.7271 11.0485C20.7601 11.1691 20.761 11.296 20.7298 11.4171C20.6677 11.6561 20.4975 11.8422 20.3424 11.9847C20.2094 12.1064 18.4845 13.7373 16.7834 15.3473L14.4672 17.5379L14.055 17.9291L19.2601 21.8428C19.3303 21.8717 19.4066 21.8837 19.4826 21.8776C19.5208 21.8725 19.5568 21.8568 19.5863 21.8324C19.6222 21.8026 19.6531 21.7674 19.6776 21.7281L19.6794 21.7272L22.2411 9.05859C22.1604 9.07762 22.0813 9.10261 22.0045 9.13335L22.0027 9.13422ZM14.5026 19.9086L13.4638 19.1279L13.212 20.6971L14.5026 19.9086ZM12.5109 17.5788L13.5435 16.6008L15.8598 14.4084L16.7223 13.593L10.9428 16.9112L10.9738 16.9824C11.3383 17.8269 11.6988 18.6731 12.0552 19.5209L12.3061 17.9561C12.3288 17.811 12.401 17.6785 12.5109 17.5788Z" fill="white"/>
</svg>
