<svg width="31" height="31" viewBox="0 0 31 31" fill="none" xmlns="http://www.w3.org/2000/svg">
<rect x="0.730936" y="0.644022" width="29.625" height="29.625" rx="14.8125" stroke="white" stroke-width="1.28804"/>
<g clip-path="url(#clip0_131_5287)">
<path d="M16.1884 23.5351C20.6493 23.5351 24.2655 19.9188 24.2655 15.458C24.2655 10.9971 20.6493 7.38086 16.1884 7.38086C11.7276 7.38086 8.11133 10.9971 8.11133 15.458C8.11133 19.9188 11.7276 23.5351 16.1884 23.5351Z" stroke="white" stroke-width="0.515217" stroke-linecap="round" stroke-linejoin="round"/>
<path d="M9.82031 20.4265C11.518 16.9105 10.5071 12.3603 13.2454 11.6443C15.9837 10.9282 17.7746 12.1496 19.2074 12.5711C20.6403 12.9926 21.8289 13.2157 22.0934 14.5509C22.4724 16.4687 16.2365 19.8562 17.5642 23.5341" stroke="white" stroke-width="0.515217" stroke-linecap="round" stroke-linejoin="round"/>
<path d="M16.3215 16.5741C17.5222 17.5219 18.7619 17.2071 21.5044 16.0583M18.3855 12.2782C18.3855 11.4243 16.8272 10.7386 15.8613 11.4971" stroke="white" stroke-width="0.515217" stroke-linecap="round" stroke-linejoin="round"/>
<path d="M15.0787 14.8673C15.765 14.8673 16.3214 14.3109 16.3214 13.6246C16.3214 12.9382 15.765 12.3818 15.0787 12.3818C14.3923 12.3818 13.8359 12.9382 13.8359 13.6246C13.8359 14.3109 14.3923 14.8673 15.0787 14.8673Z" stroke="white" stroke-width="0.515217" stroke-linecap="round" stroke-linejoin="round"/>
<path d="M15.0784 14.1089C15.346 14.1089 15.563 13.8919 15.563 13.6243C15.563 13.3566 15.346 13.1396 15.0784 13.1396C14.8107 13.1396 14.5938 13.3566 14.5938 13.6243C14.5938 13.8919 14.8107 14.1089 15.0784 14.1089Z" stroke="white" stroke-width="0.515217" stroke-linecap="round" stroke-linejoin="round"/>
<path d="M20.2609 15.3694C20.4217 15.3694 20.552 15.2391 20.552 15.0783C20.552 14.9175 20.4217 14.7871 20.2609 14.7871C20.1001 14.7871 19.9697 14.9175 19.9697 15.0783C19.9697 15.2391 20.1001 15.3694 20.2609 15.3694Z" fill="white"/>
<path d="M23.0912 15.0782C22.9976 13.38 22.2814 11.7759 21.0794 10.5726C19.8775 9.36931 18.2742 8.65123 16.5762 8.55566" stroke="white" stroke-width="0.515217" stroke-linecap="round" stroke-linejoin="round"/>
</g>
<defs>
<clipPath id="clip0_131_5287">
<rect width="18.0326" height="18.0326" fill="white" transform="translate(7.17188 6.44043)"/>
</clipPath>
</defs>
</svg>
