<svg width="32" height="31" viewBox="0 0 32 31" fill="none" xmlns="http://www.w3.org/2000/svg">
<rect x="1.29637" y="0.644022" width="29.625" height="29.625" rx="14.8125" stroke="white" stroke-width="1.28804"/>
<path d="M15.0801 20.6143C15.1594 20.6144 15.2379 20.6308 15.3111 20.6625C15.3843 20.6941 15.4508 20.7405 15.5067 20.799C15.5627 20.8574 15.6071 20.9267 15.6373 21.003C15.6676 21.0793 15.6831 21.161 15.683 21.2436C15.6828 21.3261 15.6671 21.4078 15.6367 21.484C15.6062 21.5602 15.5617 21.6294 15.5055 21.6876C15.4494 21.7459 15.3828 21.7921 15.3095 21.8236C15.2362 21.855 15.1577 21.8712 15.0784 21.8711C14.9183 21.8708 14.7649 21.8044 14.6518 21.6864C14.5388 21.5684 14.4754 21.4084 14.4756 21.2418C14.4758 21.0751 14.5397 20.9154 14.653 20.7977C14.7664 20.68 14.92 20.614 15.0801 20.6143ZM24.5465 16.7287C24.4673 16.7286 24.3888 16.7123 24.3156 16.6807C24.2423 16.649 24.1758 16.6027 24.1198 16.5443C24.0638 16.4859 24.0194 16.4166 23.9891 16.3403C23.9588 16.2641 23.9433 16.1823 23.9433 16.0998C23.9434 16.0173 23.959 15.9356 23.9894 15.8594C24.0198 15.7832 24.0643 15.7139 24.1204 15.6556C24.1765 15.5973 24.2431 15.5511 24.3164 15.5196C24.3896 15.488 24.4681 15.4718 24.5474 15.4719C24.7075 15.472 24.861 15.5383 24.9741 15.6563C25.0873 15.7742 25.1508 15.9341 25.1507 16.1007C25.1505 16.2674 25.0868 16.4272 24.9735 16.5449C24.8602 16.6627 24.7067 16.7288 24.5465 16.7287ZM24.5465 14.1579C24.0516 14.1584 23.577 14.3633 23.227 14.7276C22.877 15.0919 22.6802 15.5859 22.6797 16.1012C22.6797 16.3094 22.7132 16.5168 22.7785 16.7188L16.6121 20.1361C16.4411 19.8776 16.2123 19.6664 15.9454 19.5205C15.6785 19.3745 15.3816 19.2984 15.0801 19.2985C14.3683 19.2985 13.7199 19.7231 13.4057 20.3855L7.86612 17.3445C7.28048 17.0245 6.84254 16.0216 6.88891 15.1081C6.91295 14.6317 7.07095 14.2616 7.31225 14.1186C7.4651 14.0292 7.64887 14.0363 7.84465 14.1427L7.88072 14.1633C9.34911 14.9678 14.1527 17.602 14.3554 17.6994C14.6671 17.8505 14.8406 17.9112 15.373 17.6484L25.3031 12.2728C25.4491 12.2155 25.6191 12.0698 25.6191 11.8491C25.6191 11.5434 25.3151 11.4227 25.3142 11.4227C24.7492 11.1411 23.8811 10.7183 23.0344 10.3054C21.2242 9.42312 19.1727 8.42378 18.272 7.93215C17.494 7.50846 16.868 7.86601 16.7563 7.93752L16.5399 8.04925C12.4851 10.1364 7.05807 12.9342 6.74894 13.13C6.19679 13.4804 5.85416 14.1785 5.80951 15.0446C5.74081 16.4185 6.41318 17.8514 7.3758 18.3761L13.2339 21.5207C13.2984 21.9826 13.5205 22.4049 13.8595 22.7105C14.1984 23.0161 14.6317 23.1845 15.0801 23.185C15.5699 23.1842 16.0397 22.9833 16.3887 22.6256C16.7376 22.2679 16.9378 21.7819 16.9461 21.2722L23.3985 17.6315C23.7248 17.8978 24.1309 18.0435 24.5465 18.0435C25.0415 18.0431 25.5161 17.8382 25.8661 17.4738C26.2161 17.1095 26.4129 16.6155 26.4134 16.1003C26.4129 15.585 26.2161 15.091 25.8661 14.7267C25.5161 14.3624 25.0415 14.1575 24.5465 14.157" fill="white"/>
</svg>
